# xmcd
#
# Track frame offsets: 
#        150
#        21832
#        40195
#        54215
#        70149
#        86616
#
# Disc length: 1436 seconds
#
# Revision: 0
# Processed by: cddbd v1.5.2PL0 Copyright (c) Steve Scherf et al.
# Submitted via: ExactAudioCopy v0.95a5
#
DISCID=42059a06
DTITLE=Diablo Dimes - The Gloria o' Muerte E.P.
DYEAR=2005
DGENRE=
TTITLE0=Rainin Wine On Sunday
TTITLE1=Backstep Ballad
TTITLE2=Low N' Screwed Blues
TTITLE3=New Orleans
TTITLE4=Down From Nothin'
TTITLE5=Mudhat Blues
EXTD=
EXTT0=
EXTT1=
EXTT2=
EXTT3=
EXTT4=
EXTT5=
PLAYORDER=
